<?xml version="1.0" encoding="utf-8"?>
<!-- Generator: Adobe Illustrator 24.0.0, SVG Export Plug-In . SVG Version: 6.00 Build 0)  -->
<svg version="1.1" id="Layer_1" xmlns="http://www.w3.org/2000/svg" xmlns:xlink="http://www.w3.org/1999/xlink" x="0px" y="0px"
	 viewBox="0 0 50 50" style="enable-background:new 0 0 50 50;" xml:space="preserve">
<style type="text/css">
	.st0{fill:#F26522;}
</style>
<path class="st0" d="M9.9,0.5L9.2,1.2l-8,8L0.5,9.9l0.7,0.7l15.6,15.6L4.3,38.8c-0.1,0.1-0.2,0.3-0.3,0.4l-2,7.5
	c-0.1,0.3,0,0.7,0.3,1s0.6,0.4,1,0.3l7.5-2c0.2-0.1,0.3-0.2,0.4-0.3l34.6-34.6c0,0,0.8-0.8,0.8-0.8c1.9-1.9,1.9-5,0-6.9
	c-1.9-1.9-5-1.9-6.9,0L26.3,16.8L10.7,1.2L9.9,0.5z M9.9,3.4L11.6,5l-1.3,1.3l1.4,1.4L13,6.4L14.6,8l-2.3,2.3l1.4,1.4L16,9.4
	l1.6,1.6l-1.3,1.3l1.4,1.4l1.3-1.3l1.6,1.6l-2.3,2.3l1.4,1.4l2.3-2.3l1.6,1.6l-1.3,1.3l1.3,1.3l-5.3,5.3L3.4,9.9L9.9,3.4z M40.3,5.7
	l4.1,4.1L10,44.1L5.9,40L40.3,5.7z M34,24.6l-0.7,0.7l-2,2l1.4,1.4l1.3-1.3l1.6,1.6l-2.3,2.3l1.4,1.4l2.3-2.3l1.6,1.6l-1.3,1.3
	l1.4,1.4l1.3-1.3l1.6,1.6l-2.3,2.3l1.4,1.4l2.3-2.3l1.6,1.6l-1.3,1.3l1.4,1.4l1.3-1.3l0.6,0.6l-6.6,6.6L26,32.6L24.6,34l14.8,14.8
	l0.7,0.7l0.7-0.7l8-8l0.7-0.7l-0.7-0.7L34,24.6z"/>
</svg>
