<?xml version="1.0" encoding="utf-8"?>
<!-- Generator: Adobe Illustrator 24.0.0, SVG Export Plug-In . SVG Version: 6.00 Build 0)  -->
<svg version="1.1" id="Layer_1" xmlns="http://www.w3.org/2000/svg" xmlns:xlink="http://www.w3.org/1999/xlink" x="0px" y="0px"
	 viewBox="0 0 250 250" style="enable-background:new 0 0 250 250;" xml:space="preserve">
<style type="text/css">
	.st0{fill:none;stroke:#000000;stroke-width:10;stroke-linecap:round;stroke-linejoin:round;}
	.st1{fill:none;stroke:#F26522;stroke-width:10;stroke-linecap:round;stroke-linejoin:round;}
</style>
<title>environ</title>
<path class="st0" d="M205.1,75.4v-66H33.4v99.9H205l2.3-14.8"/>
<path class="st0" d="M183.6,200.8l1.1-15.7l13.1-11.9c3-15.8-4.3-28-17.5-29c-12.8-1-22.5,7.7-22.7,20.6c-0.1,2.6,0,5.1,0,7.5"/>
<path class="st0" d="M142.4,172.6c-0.3-3.9-0.3-8.1-1.1-11.9c-2.2-9.6-10.7-16.2-20.5-16.2c-10.9,0-17.1,5.5-19.5,17.4
	c-0.7,3.5-0.8,7.3-1.1,10.9"/>
<path class="st0" d="M9.9,200.8c0.2-20.6,9.5-28,31.8-24.9c7.7,11.5,18.6,13.1,32.4,7.7l8.2-9.5c-0.2-11.4-0.8-22.3-13.1-27.8
	c-19.5-3.2-27.8,4.8-29,28.3"/>
<path class="st1" d="M245.6,36.4c-8.8,6.1-13.5,13.9-9.6,25.1l-1.7,1.1l11.3,7.9l-4.6,14c-21.1,1.7-38.1-9.3-56.3-17.4l-4.9,4.1
	c-4.5-2-9.2-3.9-13.8-6c-13.7-6.3-27.2-12.6-40.8-18.9"/>
<path class="st1" d="M236.7,106.1c-0.1,4.8,0,9.5,0.3,14.2c0.9,13.3,3.6,26.3,9.7,38.7"/>
<path class="st0" d="M130.4,200.8c-0.3-5.1-0.8-10.1-1.1-15.2c10.6-12.6,13.9-14,28.1-12.1l12.5,12.5v19.4l-9.2,7.5
	c-0.6,10.5-1.1,21.3,8.8,28.2l-16.5,24.7"/>
<path class="st0" d="M198.8,173.7c4.7,0.8,9.7,0.6,14,2.4c11.9,5.1,13,15.8,11.9,27.4l-7.4,9.4l-14.1,4.3"/>
<path class="st1" d="M242.6,105.2c-7.6-2.7-15.4-4.9-22.8-8.1c-13.9-6-27.6-12.6-41.2-18.8l1.2-6.1"/>
<path class="st0" d="M170.6,204c8.2-1.6,16.3-4,23.8,2.1c10.5,8.7,10.2,20.4-1.2,35l10,11.6"/>
<path class="st0" d="M51.2,186.6v15.2h19.6l12.5,12.6c1.8,8.7,0.4,18.2-7.3,25.3l17.6,31h1.8l16.6-30.2c-2.1-2.7-6.8-6.7-8.6-11.8
	c-2-5.7-4.6-13.1,1.9-18.2c8.3-6.7,10.7-15,5.9-29.2c-4.3-8.2-14.9-10.6-27.8-7.7"/>
<path class="st0" d="M250.8,206.2c-8.1-7.6-17.1-4.6-26.1-2.1"/>
<path class="st0" d="M42.5,216.1c-1.6,10.2,3.2,17.9,10.6,25l-9.6,13"/>
<path class="st0" d="M114,201.8c5.1-0.3,10.9-2.6,15-0.8c14.9,6.2,18.8,18.7,9.9,33.2c-1,1.5-2,2.9-3.2,4.1l17.5,31.7"/>
<path class="st0" d="M217.1,214.9c0.1,8.6-1.3,18,8.7,22.7"/>
<path class="st0" d="M25.5,217.9l-12.7,39.9"/>
<path class="st0" d="M-7.4,205.2c12.3-9.2,25.6-3.2,33.2,11l17.5-1.1l9.2-11.9"/>
<path class="st0" d="M84.8,213.8l16.2,1.1"/>
<path class="st0" d="M159.7,213.8l-15.2,1.1"/>
<path class="st0" d="M72.9,185.6l-1.1,15.2"/>
<path class="st0" d="M115.3,185.6h13"/>
<path class="st0" d="M171.6,185.6h11.9"/>
</svg>
