<?xml version="1.0" encoding="utf-8"?>
<!-- Generator: Adobe Illustrator 24.0.0, SVG Export Plug-In . SVG Version: 6.00 Build 0)  -->
<svg version="1.1" id="Layer_1" xmlns="http://www.w3.org/2000/svg" xmlns:xlink="http://www.w3.org/1999/xlink" x="0px" y="0px"
	 viewBox="0 0 250 250" style="enable-background:new 0 0 250 250;" xml:space="preserve">
<style type="text/css">
	.st0{fill:none;stroke:#000000;stroke-width:10;stroke-linecap:round;stroke-linejoin:round;}
	.st1{fill:none;stroke:#058182;stroke-width:10;stroke-linecap:round;stroke-linejoin:round;}
</style>
<title>environ</title>
<path class="st0" d="M198.5,80.1V19.6H41v91.6h157.4l2.1-13.6"/>
<path class="st0" d="M174.3,181.9l1-14l11.7-10.6c2.7-14.1-3.8-25-15.6-25.9c-11.4-0.9-20.1,6.9-20.3,18.4c-0.1,2.3,0,4.6,0,6.7"/>
<path class="st0" d="M137.5,156.7c-0.3-3.5-0.3-7.2-1-10.6c-2-8.6-9.6-14.5-18.3-14.5c-9.7,0-15.3,4.9-17.4,15.5
	c-0.6,3.1-0.7,6.5-1,9.7"/>
<path class="st0" d="M19.2,181.9c0.2-18.4,8.5-25,28.4-22.2c6.9,10.3,16.6,11.7,28.9,6.9l7.3-8.5c-0.2-10.2-0.7-19.9-11.7-24.8
	c-17.4-2.9-24.8,4.3-25.9,25.3"/>
<path class="st1" d="M246,46.2c-8.6,5.9-13.1,13.5-9.3,24.4l-1.7,1.1l11,7.7L241.5,93c-20.5,1.7-37.1-9-54.8-16.9l-4.8,4
	c-4.4-1.9-8.9-3.8-13.4-5.8C155.2,68.2,142,62,128.8,55.9"/>
<path class="st1" d="M237.3,114c-0.1,4.7,0,9.2,0.3,13.8c0.9,12.9,3.5,25.6,9.4,37.6"/>
<path class="st0" d="M126.8,181.9c-0.3-4.6-0.7-9-1-13.6c9.5-11.3,12.4-12.5,25.1-10.8l11.2,11.2V186l-8.2,6.7
	c-0.5,9.4-1,19,7.9,25.2l-14.7,22.1"/>
<path class="st0" d="M187.9,157.7c4.2,0.7,8.7,0.5,12.5,2.1c10.6,4.6,11.6,14.1,10.6,24.5l-6.6,8.4l-12.6,3.8"/>
<path class="st1" d="M243.1,113.1c-7.4-2.6-15-4.8-22.2-7.9c-13.5-5.8-26.8-12.3-40.1-18.3L182,81"/>
<path class="st0" d="M162.7,184.7c7.3-1.4,14.6-3.6,21.3,1.9c9.4,7.8,9.1,18.2-1.1,31.3l8.9,10.4"/>
<path class="st0" d="M56.1,169.2v13.6h17.5l11.2,11.3c1.6,7.8,0.4,16.3-6.5,22.6L94,244.4h1.6l14.8-27c-1.9-2.4-6.1-6-7.7-10.5
	c-1.8-5.1-4.1-11.7,1.7-16.3c7.4-6,9.6-13.4,5.3-26.1c-3.8-7.3-13.3-9.5-24.8-6.9"/>
<path class="st0" d="M234.4,186.7c-7.2-6.8-15.3-4.1-23.3-1.9"/>
<path class="st0" d="M48.3,195.5c-1.4,9.1,2.9,16,9.5,22.3l-8.6,11.6"/>
<path class="st0" d="M112.2,182.8c4.6-0.3,9.7-2.3,13.4-0.7c13.3,5.5,16.8,16.7,8.8,29.7c-0.9,1.3-1.8,2.6-2.9,3.7l15.6,28.3"/>
<path class="st0" d="M204.3,194.5c0.1,7.7-1.2,16.1,7.8,20.3"/>
<path class="st0" d="M33.7,196.4l-5.8,16.4"/>
<path class="st0" d="M3.7,185.8c11-8.2,22.9-2.9,29.7,9.8l15.6-1l8.2-10.6"/>
<path class="st0" d="M86.1,193.5l14.5,1"/>
<path class="st0" d="M153,193.5l-13.6,1"/>
<path class="st0" d="M75.4,168.3l-1,13.6"/>
<path class="st0" d="M113.3,168.3h11.6"/>
<path class="st0" d="M163.6,168.3h10.6"/>
</svg>
