<?xml version="1.0" encoding="utf-8"?>
<!-- Generator: Adobe Illustrator 24.0.0, SVG Export Plug-In . SVG Version: 6.00 Build 0)  -->
<svg version="1.1" id="Layer_1" xmlns="http://www.w3.org/2000/svg" xmlns:xlink="http://www.w3.org/1999/xlink" x="0px" y="0px"
	 viewBox="0 0 212.1 56.2" style="enable-background:new 0 0 212.1 56.2;" xml:space="preserve">
<style type="text/css">
	.st0{fill-rule:evenodd;clip-rule:evenodd;fill:#008080;}
</style>
<path class="st0" d="M60.4,19.8L51,10.5L60.5,1l18.9,18.9v34c-8.1,0-16.1,0-24.2,0l-13.4-11c0-7.7,0-15.4,0-23.1
	C48,19.8,54.2,19.8,60.4,19.8L60.4,19.8z M55.1,30.7v12.4H66V30.7H55.1z"/>
<path class="st0" d="M146.9,53.9h-24.2v-34h24.2l13.4,11v9.4H136V43h10.8V53.9L146.9,53.9z M136,30.7v2.8h10.8v-2.8H136z"/>
<path class="st0" d="M38.8,19.8v34h-6.6l-6.6-5.4v5.4H14.7l-13.4-11c0-7.7,0-15.4,0-23.1C13.8,19.8,26.3,19.8,38.8,19.8L38.8,19.8z
	 M14.7,30.7v12.4h10.8V30.7H14.7z"/>
<path class="st0" d="M100.8,19.8l-9.5-9.4l9.5-9.5l18.9,18.9v34c-8.1,0-16.1,0-24.2,0l-13.3-11c0-7.7,0-15.4,0-23.1
	C88.4,19.8,94.6,19.8,100.8,19.8L100.8,19.8z M95.6,30.7v12.4h10.8V30.7H95.6z"/>
<path class="st0" d="M181.8,19.8l-9.5-9.4l9.5-9.5l18.9,18.9v34c-8.1,0-16.1,0-24.2,0l-13.4-11c0-7.7,0-15.4,0-23.1
	C169.4,19.8,175.6,19.8,181.8,19.8L181.8,19.8z M176.6,30.7v12.4h10.8V30.7H176.6z"/>
<path class="st0" d="M206.6,46.7c0.5,0,0.9,0.1,1.4,0.3c0.4,0.2,0.8,0.4,1.2,0.7c0.3,0.3,0.6,0.7,0.7,1.2c0.2,0.4,0.3,0.8,0.3,1.4
	s-0.1,0.9-0.3,1.4c-0.2,0.4-0.4,0.8-0.7,1.2c-0.3,0.3-0.7,0.6-1.2,0.7c-0.4,0.2-0.8,0.3-1.4,0.3c-0.5,0-0.9-0.1-1.4-0.3
	s-0.8-0.4-1.2-0.7c-0.3-0.3-0.6-0.7-0.7-1.2c-0.2-0.4-0.3-0.8-0.3-1.4s0.1-0.9,0.3-1.4c0.2-0.4,0.4-0.8,0.7-1.2
	c0.3-0.3,0.7-0.6,1.2-0.7C205.6,46.8,206.2,46.7,206.6,46.7L206.6,46.7z M205,52.3v0.1h0.6v-1.8h0.4c0.1,0,0.1,0,0.2,0h0.1
	c0,0,0.1,0,0.1,0.1l0.1,0.1c0,0.1,0.1,0.1,0.1,0.2c0.1,0.1,0.1,0.2,0.2,0.4l0.5,0.9h0.8l-0.6-1.3c0-0.1-0.1-0.2-0.2-0.3
	c-0.1-0.1-0.1-0.2-0.2-0.2l0,0l-0.1-0.1c0.1,0,0.1-0.1,0.2-0.1c0.1-0.1,0.2-0.1,0.3-0.3c0.1-0.2,0.1-0.2,0.2-0.4s0.1-0.3,0.1-0.4
	c0-0.1,0-0.2,0-0.3s-0.1-0.2-0.1-0.3c0-0.1-0.1-0.2-0.2-0.2c-0.1-0.1-0.1-0.1-0.2-0.2c-0.1,0-0.2-0.1-0.3-0.1c-0.1,0-0.3,0-0.4,0
	h-1.6L205,52.3L205,52.3z M205.7,50h0.8c0.1,0,0.2,0,0.2,0c0.1,0,0.1,0,0.2,0c0,0,0.1,0,0.1-0.1l0.1-0.1c0,0,0-0.1,0.1-0.1
	c0-0.1,0-0.1,0-0.2c0-0.1,0-0.2,0-0.2c0-0.1-0.1-0.1-0.1-0.2c0,0-0.1-0.1-0.2-0.1s-0.2,0-0.3,0h-0.9L205.7,50L205.7,50z M208.7,48.2
	c-0.3-0.3-0.6-0.5-0.9-0.6c-0.3-0.1-0.7-0.2-1.2-0.2c-0.4,0-0.8,0.1-1.2,0.2c-0.4,0.1-0.7,0.4-0.9,0.6c-0.3,0.3-0.5,0.6-0.6,0.9
	c-0.1,0.3-0.2,0.7-0.2,1.2c0,0.4,0.1,0.8,0.2,1.2c0.1,0.4,0.4,0.7,0.6,0.9c0.3,0.3,0.6,0.5,0.9,0.6c0.3,0.1,0.7,0.2,1.2,0.2
	s0.8-0.1,1.2-0.2c0.4-0.1,0.7-0.4,0.9-0.6c0.3-0.3,0.5-0.6,0.6-0.9c0.1-0.3,0.2-0.7,0.2-1.2s-0.1-0.8-0.2-1.2
	C209.2,48.8,209,48.4,208.7,48.2z"/>
</svg>
