<?xml version="1.0" encoding="utf-8"?>
<!-- Generator: Adobe Illustrator 24.0.0, SVG Export Plug-In . SVG Version: 6.00 Build 0)  -->
<svg version="1.1" id="Layer_1" xmlns="http://www.w3.org/2000/svg" xmlns:xlink="http://www.w3.org/1999/xlink" x="0px" y="0px"
	 viewBox="0 0 212.1 89.9" style="enable-background:new 0 0 212.1 89.9;" xml:space="preserve">
<style type="text/css">
	.st0{fill-rule:evenodd;clip-rule:evenodd;fill:#008080;}
</style>
<g>
	<path class="st0" d="M62.8,28.4l-8.9-8.9l9-9l17.9,17.9v32.3c-7.7,0-15.3,0-23,0L45.1,50.3c0-7.3,0-14.6,0-21.9
		C51,28.4,56.9,28.4,62.8,28.4L62.8,28.4z M57.8,38.7v11.8h10.3V38.7H57.8z"/>
	<path class="st0" d="M122,65.9v5.3h3.3l0.9-0.9v-3.6l-0.9-0.8L122,65.9L122,65.9z M193,65.9h-0.8v5.3h3.9v-0.8h-3V65.9L193,65.9z
		 M179.8,71.1l0.5-1.6h2.3l0.5,1.6h0.9l-1.7-5.3l-1.5,0l-1.8,5.3L179.8,71.1L179.8,71.1z M181.3,66.7h0.3l0.7,2.2h-1.8L181.3,66.7
		L181.3,66.7z M167.5,66.7h1.8v4.5h0.8v-4.5h1.8v-0.8h-4.5V66.7L167.5,66.7z M157.6,65.9v0.8h0.5v3.7h-0.5v0.8h1.9v-0.8h-0.6v-3.7
		h0.6v-0.8H157.6L157.6,65.9z M144.7,66.7v3.6l0.9,0.9h2.7l0.9-0.9v-2.2h-2.1v0.8h1.3v1l-0.4,0.4H146l-0.4-0.4V67l0.4-0.4h3.3v-0.8
		h-3.6L144.7,66.7L144.7,66.7z M134.5,65.9v0.8h0.5v3.7h-0.5v0.8h1.9v-0.8h-0.6v-3.7h0.6v-0.8H134.5L134.5,65.9z M125.3,69.9
		l-0.4,0.4h-2.1v-3.7h2.1l0.4,0.4V69.9z"/>
	<path class="st0" d="M123.2,76.9l-0.4-0.4v-0.6l0.4-0.4h2.9v-0.8h-3.2l-0.9,0.8v1.4l0.9,0.9h2.1l0.4,0.4v0.6l-0.4,0.4h-2.9v0.8h3.2
		l0.9-0.8v-1.4l-0.9-0.8L123.2,76.9L123.2,76.9z M193,76.9l-0.4-0.4v-0.6l0.4-0.4h2.9v-0.8h-3.2l-0.9,0.8v1.4l0.9,0.9h2.1l0.4,0.4
		v0.6l-0.4,0.4h-2.9v0.8h3.2l0.9-0.8v-1.4l-0.9-0.8L193,76.9L193,76.9z M186.1,78.6l-2.6-3.9h-0.9v5.3h0.8l0-3.9l2.6,3.9h0.9v-5.3
		h-0.8V78.6L186.1,78.6z M174.1,74.6l-0.9,0.8v3.6l0.9,0.9h2.7l0.9-0.9v-3.6l-0.9-0.8H174.1L174.1,74.6z M176.9,78.7l-0.4,0.4h-2.1
		l-0.4-0.4v-2.9l0.4-0.4h2.1l0.4,0.4V78.7L176.9,78.7z M166.5,74.6v0.8h0.5v3.7h-0.5v0.8h1.9v-0.8h-0.6v-3.7h0.6v-0.8H166.5
		L166.5,74.6z M157.7,75.5h1.8v4.5h0.8v-4.5h1.8v-0.8h-4.5V75.5L157.7,75.5z M152.3,78.8l-0.4,0.4h-1.8l-0.4-0.4v-4.1h-0.8v4.5
		l0.9,0.8h2.4l0.9-0.8v-4.5h-0.8L152.3,78.8L152.3,78.8z M141.3,74.7h-0.8v5.3h3.9v-0.8h-3V74.7L141.3,74.7z M131.9,74.6l-0.9,0.8
		v3.6l0.9,0.9h2.7l0.9-0.9v-3.6l-0.9-0.8H131.9L131.9,74.6z M134.7,78.7l-0.4,0.4h-2.1l-0.4-0.4v-2.9l0.4-0.4h2.1l0.4,0.4V78.7z"/>
	<path class="st0" d="M144.9,60.7h-23V28.4h23l12.7,10.4v8.9h-23v2.7h10.3L144.9,60.7L144.9,60.7z M134.6,38.7v2.7h10.3v-2.7H134.6z
		"/>
	<path class="st0" d="M42.3,28.4v32.3H36l-6.3-5.1v5.1H19.4L6.7,50.3c0-7.3,0-14.6,0-21.9C18.6,28.4,30.4,28.4,42.3,28.4L42.3,28.4z
		 M19.4,38.7v11.8h10.3V38.7H19.4z"/>
	<path class="st0" d="M101.2,28.4l-9-8.9l9-9l17.9,17.9v32.3c-7.7,0-15.3,0-23,0L83.5,50.3c0-7.3,0-14.6,0-21.9
		C89.4,28.4,95.3,28.4,101.2,28.4L101.2,28.4z M96.2,38.7v11.8h10.3V38.7H96.2z"/>
	<path class="st0" d="M178.1,28.4l-9-8.9l9-9L196,28.4v32.3c-7.7,0-15.3,0-23,0l-12.7-10.4c0-7.3,0-14.6,0-21.9
		C166.3,28.4,172.2,28.4,178.1,28.4L178.1,28.4z M173.1,38.7v11.8h10.3V38.7H173.1z"/>
	<path class="st0" d="M201.6,53.9c0.5,0,0.9,0.1,1.3,0.3c0.4,0.2,0.8,0.4,1.1,0.7c0.3,0.3,0.6,0.7,0.7,1.1c0.2,0.4,0.3,0.8,0.3,1.3
		c0,0.5-0.1,0.9-0.3,1.3c-0.2,0.4-0.4,0.8-0.7,1.1c-0.3,0.3-0.7,0.6-1.1,0.7c-0.4,0.2-0.8,0.3-1.3,0.3s-0.9-0.1-1.3-0.3
		c-0.4-0.2-0.8-0.4-1.1-0.7c-0.3-0.3-0.6-0.7-0.7-1.1c-0.2-0.4-0.3-0.8-0.3-1.3c0-0.5,0.1-0.9,0.3-1.3c0.2-0.4,0.4-0.8,0.7-1.1
		c0.3-0.3,0.7-0.6,1.1-0.7C200.7,54,201.2,53.9,201.6,53.9L201.6,53.9z M200.1,59.2v0.1h0.6v-1.7h0.4c0.1,0,0.1,0,0.2,0
		c0,0,0.1,0,0.1,0s0.1,0,0.1,0.1c0,0,0.1,0.1,0.1,0.1c0,0.1,0.1,0.1,0.1,0.2c0.1,0.1,0.1,0.2,0.2,0.4l0.5,0.9h0.8l-0.6-1.2
		c0-0.1-0.1-0.2-0.2-0.3c-0.1-0.1-0.1-0.2-0.2-0.2l0,0c0,0-0.1-0.1-0.1-0.1c0.1,0,0.1-0.1,0.2-0.1c0.1-0.1,0.2-0.1,0.3-0.3
		s0.1-0.2,0.2-0.4s0.1-0.3,0.1-0.4c0-0.1,0-0.2,0-0.3c0-0.1-0.1-0.2-0.1-0.3s-0.1-0.2-0.2-0.2c-0.1-0.1-0.1-0.1-0.2-0.2
		c-0.1,0-0.2-0.1-0.3-0.1c-0.1,0-0.3,0-0.4,0h-1.5L200.1,59.2L200.1,59.2z M200.8,57h0.8c0.1,0,0.2,0,0.2,0c0.1,0,0.1,0,0.2,0
		c0,0,0.1,0,0.1-0.1c0,0,0.1-0.1,0.1-0.1c0,0,0-0.1,0.1-0.1c0-0.1,0-0.1,0-0.2c0-0.1,0-0.2,0-0.2c0-0.1-0.1-0.1-0.1-0.2
		c0,0-0.1-0.1-0.2-0.1s-0.2,0-0.3,0h-0.9L200.8,57L200.8,57z M203.6,55.3c-0.3-0.3-0.6-0.5-0.9-0.6c-0.3-0.1-0.7-0.2-1.1-0.2
		c-0.4,0-0.8,0.1-1.1,0.2c-0.4,0.1-0.7,0.4-0.9,0.6c-0.3,0.3-0.5,0.6-0.6,0.9c-0.1,0.3-0.2,0.7-0.2,1.1c0,0.4,0.1,0.8,0.2,1.1
		c0.1,0.4,0.4,0.7,0.6,0.9c0.3,0.3,0.6,0.5,0.9,0.6c0.3,0.1,0.7,0.2,1.1,0.2c0.4,0,0.8-0.1,1.1-0.2c0.4-0.1,0.7-0.4,0.9-0.6
		c0.3-0.3,0.5-0.6,0.6-0.9c0.1-0.3,0.2-0.7,0.2-1.1s-0.1-0.8-0.2-1.1C204.1,55.9,203.9,55.5,203.6,55.3z"/>
</g>
</svg>
