<?xml version="1.0" encoding="utf-8"?>
<!-- Generator: Adobe Illustrator 24.0.0, SVG Export Plug-In . SVG Version: 6.00 Build 0)  -->
<svg version="1.1" id="Layer_1" xmlns="http://www.w3.org/2000/svg" xmlns:xlink="http://www.w3.org/1999/xlink" x="0px" y="0px"
	 viewBox="0 0 48 45.5" style="enable-background:new 0 0 48 45.5;" xml:space="preserve">
<style type="text/css">
	.st0{fill:#058182;}
</style>
<path class="st0" d="M24,0c-0.7,0-1.3,0.4-1.6,1l-6.2,12.3L1.6,15.6c-1,0.2-1.7,1.1-1.5,2.1c0.1,0.4,0.2,0.7,0.5,1l10.1,10.1
	L8.4,43.4c-0.2,1,0.5,1.9,1.5,2c0.4,0.1,0.8,0,1.1-0.2L24,38.6l12.9,6.8c0.9,0.5,2,0.1,2.4-0.8c0.2-0.3,0.2-0.7,0.2-1.1l-2.3-14.7
	l10.1-10.1c0.7-0.7,0.7-1.8,0-2.5c-0.3-0.3-0.6-0.4-1-0.5l-14.7-2.3L25.6,1C25.3,0.4,24.7,0,24,0z M24,5.8l5,10
	c0.3,0.5,0.8,0.9,1.3,1l12.1,1.9l-8.3,8.3c-0.4,0.4-0.6,1-0.5,1.5l1.9,12.1l-10.6-5.5c-0.5-0.3-1.1-0.3-1.7,0l-10.6,5.5l1.9-12.1
	c0.1-0.6-0.1-1.1-0.5-1.5l-8.3-8.3l12.1-1.9c0.6-0.1,1.1-0.5,1.3-1L24,5.8z"/>
</svg>
