<?xml version="1.0" encoding="utf-8"?>
<!-- Generator: Adobe Illustrator 24.0.0, SVG Export Plug-In . SVG Version: 6.00 Build 0)  -->
<svg version="1.1" id="Layer_1" xmlns="http://www.w3.org/2000/svg" xmlns:xlink="http://www.w3.org/1999/xlink" x="0px" y="0px"
	 viewBox="0 0 25.6 28.9" style="enable-background:new 0 0 25.6 28.9;" xml:space="preserve">
<style type="text/css">
	.st0{fill:#058182;}
</style>
<g>
	<path class="st0" d="M19.2,28.8H8.4c-2.1,0-4-0.8-5.6-2.1H0v-16h1.7c1.1,0,2.1-0.7,3-2C5.8,7.1,6.6,5.4,7,3.9
		C7.2,3.3,7.3,2.7,7.4,2c0-0.4,0.1-0.7,0.1-1.1L7.6,0h2c4.3,0,4.3,4,4.3,6.4c0,0.6-0.4,2-0.7,3.2h8.7c2.1,0,3.7,1.7,3.7,3.7
		c0,0.8-0.2,1.5-0.7,2.1c0.4,0.6,0.7,1.4,0.7,2.1c0,1.1-0.5,2.2-1.3,2.9c0.2,0.4,0.3,0.9,0.3,1.4c0,1.5-0.9,2.8-2.1,3.4v0.4
		C22.4,27.4,21,28.8,19.2,28.8z M2.1,24.5h1.5L4,24.9c1.2,1.2,2.7,1.8,4.4,1.8h10.9c0.6,0,1.1-0.5,1.1-1.1v-2l0.9-0.2
		c0.7-0.2,1.3-0.8,1.3-1.6c0-0.4-0.1-0.8-0.4-1.1l-1-1.2l1.5-0.5c0.6-0.2,1-0.8,1-1.5c0-0.5-0.2-1-0.6-1.3l-1.1-0.9l1.1-0.9
		c0.4-0.3,0.6-0.8,0.6-1.3c0-0.9-0.7-1.6-1.6-1.6H10.3l0.4-1.4c0.5-1.6,1-3.6,1-4c0-3.1-0.3-4.3-2.1-4.3H9.5c0,0,0,0.1,0,0.1
		C9.4,3,9.3,3.7,9.1,4.5C8.5,6.7,7.4,8.6,6.5,9.9c-1.2,1.8-2.7,2.7-4.4,2.9V24.5z"/>
</g>
</svg>
