<?xml version="1.0" encoding="utf-8"?>
<!-- Generator: Adobe Illustrator 24.0.0, SVG Export Plug-In . SVG Version: 6.00 Build 0)  -->
<svg version="1.1" id="Layer_1" xmlns="http://www.w3.org/2000/svg" xmlns:xlink="http://www.w3.org/1999/xlink" x="0px" y="0px"
	 viewBox="0 0 48 48" style="enable-background:new 0 0 48 48;" xml:space="preserve">
<style type="text/css">
	.st0{fill:#058182;}
</style>
<g>
	<g>
		<path class="st0" d="M7.3,43.4H0V27.6h7.3V43.4z M2,41.4H1.7l3.6-11.8h0.4L2,41.4z"/>
	</g>
	<rect x="3.3" y="23.7" class="st0" width="0.6" height="4.6"/>
	<rect x="3.3" y="42.5" class="st0" width="0.6" height="5.4"/>
</g>
<g>
	<g>
		<path class="st0" d="M17.5,38.2h-7.3V15.4h7.3V38.2z M12.2,36.2h-1l4.3-18.8h0.7L12.2,36.2z"/>
	</g>
	<rect x="13.5" y="11.2" class="st0" width="0.6" height="4.6"/>
	<rect x="13.5" y="37.3" class="st0" width="0.6" height="5.4"/>
</g>
<g>
	<path class="st0" d="M27.6,18h-7.3V4.2h7.3C27.6,4.2,27.6,18,27.6,18z M22.4,16H22l3.7-9.8h0.6L22.4,16z"/>
</g>
<rect x="23.7" class="st0" width="0.6" height="4.6"/>
<rect x="23.7" y="17.8" class="st0" width="0.6" height="5.4"/>
<g>
	<path class="st0" d="M37.7,28h-7.3V14.2h7.3V28z M32.4,26h-0.5l3.8-9.8h0.6L32.4,26z"/>
</g>
<rect x="33.8" y="10" class="st0" width="0.6" height="4.6"/>
<rect x="34" y="27.7" class="st0" width="0.6" height="5.4"/>
<g>
	<path class="st0" d="M48.1,31.4h-7.3V8.6h7.3V31.4z M42.8,29.4H42l4.1-18.8h0.6L42.8,29.4z"/>
</g>
<rect x="44.2" y="4.8" class="st0" width="0.6" height="4.6"/>
<rect x="44.1" y="30.8" class="st0" width="0.6" height="5.4"/>
</svg>
