<?xml version="1.0" encoding="utf-8"?>
<!-- Generator: Adobe Illustrator 24.0.0, SVG Export Plug-In . SVG Version: 6.00 Build 0)  -->
<svg version="1.1" id="Layer_1" xmlns="http://www.w3.org/2000/svg" xmlns:xlink="http://www.w3.org/1999/xlink" x="0px" y="0px"
	 viewBox="0 0 48 48" style="enable-background:new 0 0 48 48;" xml:space="preserve">
<style type="text/css">
	.st0{fill:none;stroke:#058182;stroke-width:0.5;stroke-linecap:round;stroke-linejoin:round;stroke-miterlimit:10;}
</style>
<path class="st0" d="M30.8,32.8L5.2,32.7c-2.6,0-4.8-2.1-4.8-4.8V4.8C0.4,2.1,2.6,0,5.2,0h33.1C40.9,0,43,2.1,43,4.8V19"/>
<path class="st0" d="M30.8,26.1L5.2,25.9c-1.4,0-2.6-1.1-2.6-2.6V4.9c0-1.4,1.1-2.6,2.6-2.6h33c1.4,0,2.6,1.1,2.6,2.6V19"/>
<path class="st0" d="M2.7,5.7V4.9c0-1.4,1.1-2.6,2.6-2.6h33c1.4,0,2.6,1.1,2.6,2.6v0.8C40.8,5.7,2.7,5.7,2.7,5.7z"/>
<circle class="st0" cx="21.7" cy="29.5" r="1.4"/>
<path class="st0" d="M25.9,32.8c0,0-0.8,4.9,2.9,4.9c-4.5,0-7.4,0-7.4,0h0.5c0,0-2.8,0-7.3,0c3.7,0,2.9-4.8,2.9-4.8"/>
<rect x="5.5" y="8.2" class="st0" width="14.2" height="14.6"/>
<line class="st0" x1="22" y1="13.4" x2="33.9" y2="13.4"/>
<line class="st0" x1="22" y1="15.8" x2="35.9" y2="15.8"/>
<line class="st0" x1="22" y1="17.4" x2="33.9" y2="17.4"/>
<path class="st0" d="M46,46.7H32.7c-0.9,0-1.7-0.9-1.7-2V21c0-1.1,0.8-2,1.7-2H46c0.9,0,1.7,0.9,1.7,2v23.7
	C47.7,45.8,47,46.7,46,46.7z"/>
<path class="st0" d="M45.2,43.1H33.6c-0.6,0-1-0.6-1-1.3v-20c0-0.7,0.5-1.3,1-1.3h11.6c0.6,0,1,0.6,1,1.3v20
	C46.2,42.5,45.7,43.1,45.2,43.1z"/>
<circle class="st0" cx="39.8" cy="44.8" r="0.8"/>
<rect x="34.4" y="22.2" class="st0" width="9.9" height="9"/>
<line class="st0" x1="34.2" y1="33.7" x2="42.6" y2="33.7"/>
<line class="st0" x1="34.2" y1="35.1" x2="41.2" y2="35.1"/>
<g>
</g>
<g>
</g>
<g>
</g>
<g>
</g>
<g>
</g>
<g>
</g>
</svg>
